<svg xmlns="http://www.w3.org/2000/svg" viewBox="0 0 1221 1049" fill="none" role="img" aria-label="Chris Kremer">
  <mask id="ck-c-mask" fill="white">
    <path d="M889.419 45.5302C385.121 51.6312 28.2594 242.734 31.3162 495.407C34.373 748.08 395.753 930.494 900.051 924.393"/>
  </mask>
  <path d="M891.427 211.518C983.099 210.409 1056.52 135.195 1055.41 43.5221C1054.3 -48.1504 979.083 -121.567 887.411 -120.458L889.419 45.5302L891.427 211.518ZM902.059 1090.38C993.732 1089.27 1067.15 1014.06 1066.04 922.385C1064.93 830.712 989.716 757.296 898.043 758.405L900.051 924.393L902.059 1090.38ZM889.419 45.5302L887.411 -120.458C617.318 -117.19 374.217 -64.6049 192.651 31.1837C14.6968 125.067 -137.282 281.666 -134.672 497.415L31.3162 495.407L197.304 493.399C196.857 456.475 221.781 391.186 347.568 324.825C469.743 260.368 657.222 214.351 891.427 211.518L889.419 45.5302ZM31.3162 495.407L-134.672 497.415C-132.062 713.165 23.661 866.041 203.835 955.592C387.664 1046.96 631.967 1093.65 902.059 1090.38L900.051 924.393L898.043 758.405C663.838 761.238 475.301 719.771 351.602 658.289C224.247 594.99 197.751 530.323 197.304 493.399L31.3162 495.407Z" fill="#000" mask="url(#ck-c-mask)"/>
  <path d="M402.276 795.862L813.874 114" stroke="#000" stroke-width="130" stroke-linejoin="round"/>
  <path d="M596 490L787 825" stroke="#000" stroke-width="130" stroke-linejoin="round"/>
</svg>
